<mxfile host="65bd71144e">
    <diagram id="UwpmbEAuU0uYXeYTQLL0" name="Page-1">
        <mxGraphModel dx="1455" dy="947" grid="0" gridSize="10" guides="1" tooltips="0" connect="1" arrows="1" fold="1" page="0" pageScale="1" pageWidth="850" pageHeight="1100" math="0" shadow="0">
            <root>
                <mxCell id="0"/>
                <mxCell id="1" parent="0"/>
                <mxCell id="6" value="" style="group" parent="1" vertex="1" connectable="0">
                    <mxGeometry x="10" y="60" width="131" height="650" as="geometry"/>
                </mxCell>
                <mxCell id="46" value="" style="rounded=0;whiteSpace=wrap;html=1;" parent="6" vertex="1">
                    <mxGeometry x="55" y="470" width="10" height="60" as="geometry"/>
                </mxCell>
                <mxCell id="44" value="" style="rounded=0;whiteSpace=wrap;html=1;" parent="6" vertex="1">
                    <mxGeometry x="54" y="280" width="10" height="60" as="geometry"/>
                </mxCell>
                <mxCell id="43" value="" style="rounded=0;whiteSpace=wrap;html=1;" parent="6" vertex="1">
                    <mxGeometry x="55" y="150" width="10" height="110" as="geometry"/>
                </mxCell>
                <mxCell id="41" value="" style="rounded=0;whiteSpace=wrap;html=1;" parent="6" vertex="1">
                    <mxGeometry x="55" y="40" width="10" height="60" as="geometry"/>
                </mxCell>
                <mxCell id="3" value="Device&amp;lt;SECURITY&amp;gt;" style="rounded=1;whiteSpace=wrap;html=1;strokeWidth=3;" parent="6" vertex="1">
                    <mxGeometry y="-20" width="120" height="41.26984126984127" as="geometry"/>
                </mxCell>
                <mxCell id="5" value="" style="endArrow=none;html=1;entryX=0.5;entryY=1;entryDx=0;entryDy=0;strokeWidth=2.5;exitX=0.5;exitY=0;exitDx=0;exitDy=0;" parent="6" source="10" target="3" edge="1">
                    <mxGeometry width="50" height="50" relative="1" as="geometry">
                        <mxPoint x="60" y="650.0000000000001" as="sourcePoint"/>
                        <mxPoint x="390" y="133.33333333333334" as="targetPoint"/>
                    </mxGeometry>
                </mxCell>
                <mxCell id="10" value="Device&amp;lt;SECURITY&amp;gt;" style="rounded=1;whiteSpace=wrap;html=1;strokeWidth=3;" parent="6" vertex="1">
                    <mxGeometry y="540" width="120" height="40" as="geometry"/>
                </mxCell>
                <mxCell id="7" value="" style="group;strokeWidth=3;" parent="1" vertex="1" connectable="0">
                    <mxGeometry x="718" y="80" width="120" height="640" as="geometry"/>
                </mxCell>
                <mxCell id="11" value="Manufacture&lt;br style=&quot;border-color: var(--border-color);&quot;&gt;&amp;lt;SECURITY&amp;gt;" style="rounded=1;whiteSpace=wrap;html=1;strokeWidth=3;" parent="7" vertex="1">
                    <mxGeometry y="520" width="120" height="40" as="geometry"/>
                </mxCell>
                <mxCell id="42" value="" style="rounded=0;whiteSpace=wrap;html=1;" parent="7" vertex="1">
                    <mxGeometry x="55" y="64" width="10" height="86" as="geometry"/>
                </mxCell>
                <mxCell id="45" value="" style="rounded=0;whiteSpace=wrap;html=1;" parent="7" vertex="1">
                    <mxGeometry x="55" y="260" width="10" height="60" as="geometry"/>
                </mxCell>
                <mxCell id="49" value="" style="rounded=0;whiteSpace=wrap;html=1;" parent="7" vertex="1">
                    <mxGeometry x="55" y="450" width="10" height="60" as="geometry"/>
                </mxCell>
                <mxCell id="12" value="" style="endArrow=classic;html=1;" parent="1" edge="1">
                    <mxGeometry width="50" height="50" relative="1" as="geometry">
                        <mxPoint x="75" y="152" as="sourcePoint"/>
                        <mxPoint x="772" y="152" as="targetPoint"/>
                    </mxGeometry>
                </mxCell>
                <mxCell id="14" value="按通信场景需要生成&lt;b&gt;KEK&lt;/b&gt;，并使用通信对方公钥（&lt;b&gt;RC.pk&lt;/b&gt;）加密保护得到&lt;b&gt;EKEK，&lt;/b&gt;并使用&lt;b&gt;EK.PK&lt;/b&gt;签名之，联合被通信方签名的公钥（证书）一起打包为通信&lt;b&gt;TOKEN&lt;/b&gt;" style="text;html=1;align=left;verticalAlign=middle;whiteSpace=wrap;rounded=0;strokeWidth=0.5;dashed=1;strokeColor=none;" parent="1" vertex="1">
                    <mxGeometry x="131" y="99" width="561" height="30" as="geometry"/>
                </mxCell>
                <mxCell id="15" value="使用&lt;b&gt;TOKEN&lt;/b&gt;向通信对方发起通信请求" style="text;html=1;strokeColor=none;fillColor=none;align=left;verticalAlign=middle;whiteSpace=wrap;rounded=0;strokeWidth=3;" parent="1" vertex="1">
                    <mxGeometry x="79" y="130" width="430" height="30" as="geometry"/>
                </mxCell>
                <mxCell id="16" value="" style="endArrow=classic;html=1;strokeWidth=1;" parent="1" edge="1">
                    <mxGeometry width="50" height="50" relative="1" as="geometry">
                        <mxPoint x="74" y="105" as="sourcePoint"/>
                        <mxPoint x="74" y="125" as="targetPoint"/>
                        <Array as="points">
                            <mxPoint x="114" y="105"/>
                            <mxPoint x="134" y="115"/>
                            <mxPoint x="124" y="125"/>
                        </Array>
                    </mxGeometry>
                </mxCell>
                <mxCell id="19" value="" style="endArrow=classic;html=1;strokeWidth=1;" parent="1" edge="1">
                    <mxGeometry width="50" height="50" relative="1" as="geometry">
                        <mxPoint x="774" y="181" as="sourcePoint"/>
                        <mxPoint x="774" y="202" as="targetPoint"/>
                        <Array as="points">
                            <mxPoint x="744" y="181"/>
                            <mxPoint x="726" y="190"/>
                            <mxPoint x="726" y="200"/>
                        </Array>
                    </mxGeometry>
                </mxCell>
                <mxCell id="20" value="验证通信发起方的&lt;b&gt;EK&lt;/b&gt;+&lt;b&gt;EKEK&lt;/b&gt;签名从而确定设备（及请求的通信）的合法性，而后使用&lt;b&gt;RC.SK&lt;/b&gt;从EKEK恢复出&lt;b&gt;KEK&lt;/b&gt;" style="text;html=1;strokeColor=none;fillColor=none;align=right;verticalAlign=middle;whiteSpace=wrap;rounded=0;strokeWidth=3;" parent="1" vertex="1">
                    <mxGeometry x="127" y="180" width="600" height="30" as="geometry"/>
                </mxCell>
                <mxCell id="21" value="" style="endArrow=classic;html=1;strokeWidth=1;fontColor=#000000;" parent="1" edge="1">
                    <mxGeometry width="50" height="50" relative="1" as="geometry">
                        <mxPoint x="773" y="224" as="sourcePoint"/>
                        <mxPoint x="72" y="224" as="targetPoint"/>
                    </mxGeometry>
                </mxCell>
                <mxCell id="22" value="使用&lt;b&gt;KEK&lt;/b&gt;加密临时&lt;b&gt;LK&lt;/b&gt;向通信发起方进行通信接受确认（ACK）" style="text;html=1;strokeColor=none;fillColor=none;align=right;verticalAlign=middle;whiteSpace=wrap;rounded=0;strokeWidth=3;" parent="1" vertex="1">
                    <mxGeometry x="433" y="202" width="341" height="30" as="geometry"/>
                </mxCell>
                <mxCell id="23" value="" style="endArrow=classic;html=1;strokeWidth=1;" parent="1" edge="1">
                    <mxGeometry width="50" height="50" relative="1" as="geometry">
                        <mxPoint x="75" y="268" as="sourcePoint"/>
                        <mxPoint x="75" y="288" as="targetPoint"/>
                        <Array as="points">
                            <mxPoint x="115" y="268"/>
                            <mxPoint x="135" y="278"/>
                            <mxPoint x="125" y="288"/>
                        </Array>
                    </mxGeometry>
                </mxCell>
                <mxCell id="24" value="校验KEK加密的临时LK以确认安全通信建立" style="text;html=1;strokeColor=none;fillColor=none;align=left;verticalAlign=middle;whiteSpace=wrap;rounded=0;strokeWidth=3;" parent="1" vertex="1">
                    <mxGeometry x="131" y="265" width="241" height="30" as="geometry"/>
                </mxCell>
                <mxCell id="25" value="" style="endArrow=classic;html=1;strokeWidth=1;fontColor=#000000;" parent="1" edge="1">
                    <mxGeometry width="50" height="50" relative="1" as="geometry">
                        <mxPoint x="74" y="360" as="sourcePoint"/>
                        <mxPoint x="773" y="360" as="targetPoint"/>
                    </mxGeometry>
                </mxCell>
                <mxCell id="26" value="" style="endArrow=classic;html=1;strokeWidth=1;fontColor=#000000;" parent="1" edge="1">
                    <mxGeometry width="50" height="50" relative="1" as="geometry">
                        <mxPoint x="772" y="380" as="sourcePoint"/>
                        <mxPoint x="74" y="380" as="targetPoint"/>
                    </mxGeometry>
                </mxCell>
                <mxCell id="29" value="&lt;font style=&quot;font-size: 20px;&quot;&gt;...&lt;br&gt;&lt;/font&gt;&lt;br&gt;基于预先交换&lt;b&gt;KEK&lt;/b&gt;的保护/KDF一事一密安全通信下的业务数据交换&lt;br&gt;&lt;div style=&quot;&quot;&gt;&lt;span style=&quot;background-color: initial;&quot;&gt;&lt;font style=&quot;font-size: 20px;&quot;&gt;...&lt;/font&gt;&lt;/span&gt;&lt;/div&gt;" style="text;html=1;strokeColor=none;fillColor=none;align=center;verticalAlign=middle;whiteSpace=wrap;rounded=0;strokeWidth=3;" parent="1" vertex="1">
                    <mxGeometry x="260" y="339" width="360" height="50" as="geometry"/>
                </mxCell>
                <mxCell id="30" value="&lt;ul&gt;&lt;li&gt;&amp;nbsp;在双方通信链接建立后直到通信结束，通信双方需将KEK安全保存，不可泄露，通信结束后销毁；&lt;/li&gt;&lt;li&gt;&amp;nbsp;基于上一次的LK做下次密钥交换的KEK，在某些通信场景也是常用的，甚至安全性从某些方面说更佳；&lt;/li&gt;&lt;li&gt;&amp;nbsp;基于一信一密原则，按相关安全评估，使用子迭代的算法进行密钥的实时更新，或在恰当的实际进行LK的更换&lt;/li&gt;&lt;li&gt;&amp;nbsp;上流程的核心在于KEK的交换，本方案只是给出一个通用的流程，实际系统中可根据需求进一步简化/增强&lt;/li&gt;&lt;/ul&gt;&lt;div style=&quot;left: 212px; bottom: 0px; right: 240px; height: 36px;&quot; class=&quot;geTabContainer geTabItem&quot;&gt;&lt;div style=&quot;width: 30px;&quot; title=&quot;Pages&quot; class=&quot;geTab geControlTab&quot;&gt;&lt;div style=&quot;background-image: url(&amp;quot;data:image/svg+xml;base64,PHN2ZyB4bWxucz0iaHR0cDovL3d3dy53My5vcmcvMjAwMC9zdmciIGhlaWdodD0iMThweCIgdmlld0JveD0iMCAwIDI0IDI0IiB3aWR0aD0iMThweCIgZmlsbD0iIzAwMDAwMCI+PHBhdGggZD0iTTAgMGgyNHYyNEgwVjB6IiBmaWxsPSJub25lIi8+PHBhdGggZD0iTTEyIDhjMS4xIDAgMi0uOSAyLTJzLS45LTItMi0yLTIgLjktMiAyIC45IDIgMiAyem0wIDJjLTEuMSAwLTIgLjktMiAycy45IDIgMiAyIDItLjkgMi0yLS45LTItMi0yem0wIDZjLTEuMSAwLTIgLjktMiAycy45IDIgMiAyIDItLjkgMi0yLS45LTItMi0yeiIvPjwvc3ZnPg==&amp;quot;); background-repeat: no-repeat; background-position: center center; background-size: 24px; position: relative; opacity: 0.5; width: 100%; height: 100%;&quot; class=&quot;geAdaptiveAsset&quot;&gt;&lt;/div&gt;&lt;/div&gt;&lt;div class=&quot;geTabScroller&quot;&gt;&lt;div draggable=&quot;true&quot; title=&quot;Page-1 (UwpmbEAuU0uYXeYTQLL0) [1]&quot; class=&quot;geTab gePageTab geActivePage&quot;&gt;&lt;span&gt;Page-1&lt;/span&gt;&lt;div style=&quot;background-image: url(&amp;quot;data:image/svg+xml;base64,PCFET0NUWVBFIHN2ZyBQVUJMSUMgIi0vL1czQy8vRFREIFNWRyAxLjEvL0VOIiAiaHR0cDovL3d3dy53My5vcmcvR3JhcGhpY3MvU1ZHLzEuMS9EVEQvc3ZnMTEuZHRkIj48c3ZnIHhtbG5zPSJodHRwOi8vd3d3LnczLm9yZy8yMDAwL3N2ZyIgeG1sbnM6eGxpbms9Imh0dHA6Ly93d3cudzMub3JnLzE5OTkveGxpbmsiIHdpZHRoPSIxNHB4IiBoZWlnaHQ9IjEwcHgiIHZlcnNpb249IjEuMSI+PHBhdGggZD0iTSAzIDcgTCA3IDMgTCAxMSA3IiBzdHJva2U9IiM3MDcwNzAiIHN0cm9rZS13aWR0aD0iMiIgZmlsbD0ibm9uZSIvPjwvc3ZnPg==&amp;quot;); background-position: center center; background-repeat: no-repeat; background-size: 10px;&quot; class=&quot;geTabMenuButton&quot;&gt;&lt;/div&gt;&lt;/div&gt;&lt;/div&gt;&lt;div style=&quot;width: 30px;&quot; title=&quot;Insert Page&quot; class=&quot;geTab geControlTab&quot;&gt;&lt;div style=&quot;background-image: url(&amp;quot;data:image/svg+xml;base64,PHN2ZyB4bWxucz0iaHR0cDovL3d3dy53My5vcmcvMjAwMC9zdmciIHdpZHRoPSIyNCIgaGVpZ2h0PSIyNCIgdmlld0JveD0iMCAwIDI0IDI0Ij48cGF0aCBkPSJNMTkgMTNoLTZ2NmgtMnYtNkg1di0yaDZWNWgydjZoNnYyeiIvPjwvc3ZnPg==&amp;quot;); background-repeat: no-repeat; background-position: center center; background-size: 24px; position: relative; opacity: 0.5; width: 100%; height: 100%;&quot; class=&quot;geAdaptiveAsset&quot;&gt;&lt;/div&gt;&lt;/div&gt;&lt;div style=&quot;width: 30px; opacity: 0; transition: 0.2s linear;&quot; class=&quot;geTab geControlTab&quot;&gt;&lt;div style=&quot;background-image: url(&amp;quot;data:image/svg+xml;base64,PHN2ZyB4bWxucz0iaHR0cDovL3d3dy53My5vcmcvMjAwMC9zdmciIGhlaWdodD0iNDgiIHdpZHRoPSI0OCI+PHBhdGggZD0iTTI4LjA1IDM1LjMgMTYuNyAyMy45NSAyOC4wNSAxMi42bDEuNiAxLjY1LTkuNyA5LjcgOS43IDkuNzVaIi8+PC9zdmc+&amp;quot;); background-repeat: no-repeat; background-position: center center; background-size: 24px; position: relative; opacity: 0.5; width: 100%; height: 100%;&quot; class=&quot;geAdaptiveAsset&quot;&gt;&lt;/div&gt;&lt;/div&gt;&lt;div style=&quot;width: 30px; opacity: 0; transition: 0.2s linear;&quot; class=&quot;geTab geControlTab&quot;&gt;&lt;div style=&quot;background-image: url(&amp;quot;data:image/svg+xml;base64,PHN2ZyB4bWxucz0iaHR0cDovL3d3dy53My5vcmcvMjAwMC9zdmciIGhlaWdodD0iNDgiIHdpZHRoPSI0OCI+PHBhdGggZD0ibTE4Ljc1IDM1LjMtMS42LTEuNiA5LjctOS43NS05LjctOS43IDEuNi0xLjY1TDMwLjEgMjMuOTVaIi8+PC9zdmc+&amp;quot;); background-repeat: no-repeat; background-position: center center; background-size: 24px; position: relative; opacity: 0.5; width: 100%; height: 100%;&quot; class=&quot;geAdaptiveAsset&quot;&gt;&lt;/div&gt;&lt;/div&gt;&lt;/div&gt;&lt;div style=&quot;left: 0px; right: 0px; top: 30px; height: 38px;&quot; class=&quot;geToolbarContainer&quot;&gt;&lt;div class=&quot;geToolbar&quot;&gt;&lt;a style=&quot;position: relative; white-space: nowrap; overflow: hidden; padding-right: 18px;&quot; title=&quot;Style&quot; class=&quot;geLabel&quot;&gt;Style&lt;img style=&quot;position: absolute; right: 1px; top: 5px;&quot; src=&quot;data:image/gif;base64,R0lGODlhDQANAIABAHt7e////yH/C1hNUCBEYXRhWE1QPD94cGFja2V0IGJlZ2luPSLvu78iIGlkPSJXNU0wTXBDZWhpSHpyZVN6TlRjemtjOWQiPz4gPHg6eG1wbWV0YSB4bWxuczp4PSJhZG9iZTpuczptZXRhLyIgeDp4bXB0az0iQWRvYmUgWE1QIENvcmUgNS4wLWMwNjAgNjEuMTM0Nzc3LCAyMDEwLzAyLzEyLTE3OjMyOjAwICAgICAgICAiPiA8cmRmOlJERiB4bWxuczpyZGY9Imh0dHA6Ly93d3cudzMub3JnLzE5OTkvMDIvMjItcmRmLXN5bnRheC1ucyMiPiA8cmRmOkRlc2NyaXB0aW9uIHJkZjphYm91dD0iIiB4bWxuczp4bXA9Imh0dHA6Ly9ucy5hZG9iZS5jb20veGFwLzEuMC8iIHhtbG5zOnhtcE1NPSJodHRwOi8vbnMuYWRvYmUuY29tL3hhcC8xLjAvbW0vIiB4bWxuczpzdFJlZj0iaHR0cDovL25zLmFkb2JlLmNvbS94YXAvMS4wL3NUeXBlL1Jlc291cmNlUmVmIyIgeG1wOkNyZWF0b3JUb29sPSJBZG9iZSBQaG90b3Nob3AgQ1M1IE1hY2ludG9zaCIgeG1wTU06SW5zdGFuY2VJRD0ieG1wLmlpZDpCREM1NkJFMjE0NEMxMUU1ODk1Q0M5MjQ0MTA4QjNDMSIgeG1wTU06RG9jdW1lbnRJRD0ieG1wLmRpZDpCREM1NkJFMzE0NEMxMUU1ODk1Q0M5MjQ0MTA4QjNDMSI+IDx4bXBNTTpEZXJpdmVkRnJvbSBzdFJlZjppbnN0YW5jZUlEPSJ4bXAuaWlkOkQzOUMzMjZCMTQ0QjExRTU4OTVDQzkyNDQxMDhCM0MxIiBzdFJlZjpkb2N1bWVudElEPSJ4bXAuZGlkOkQzOUMzMjZDMTQ0QjExRTU4OTVDQzkyNDQxMDhCM0MxIi8+IDwvcmRmOkRlc2NyaXB0aW9uPiA8L3JkZjpSREY+IDwveDp4bXBtZXRhPiA8P3hwYWNrZXQgZW5kPSJyIj8+Af/+/fz7+vn49/b19PPy8fDv7u3s6+rp6Ofm5eTj4uHg397d3Nva2djX1tXU09LR0M/OzczLysnIx8bFxMPCwcC/vr28u7q5uLe2tbSzsrGwr66trKuqqainpqWko6KhoJ+enZybmpmYl5aVlJOSkZCPjo2Mi4qJiIeGhYSDgoGAf359fHt6eXh3dnV0c3JxcG9ubWxramloZ2ZlZGNiYWBfXl1cW1pZWFdWVVRTUlFQT05NTEtKSUhHRkVEQ0JBQD8+PTw7Ojk4NzY1NDMyMTAvLi0sKyopKCcmJSQjIiEgHx4dHBsaGRgXFhUUExIREA8ODQwLCgkIBwYFBAMCAQAAIfkEAQAAAQAsAAAAAA0ADQAAAhGMj6nL3QAjVHIu6azbvPtWAAA7&quot; valign=&quot;middle&quot; border=&quot;0&quot;&gt;&lt;/a&gt;&lt;div class=&quot;geSeparator&quot;&gt;&lt;/div&gt;&lt;a style=&quot;position: relative; white-space: nowrap; overflow: hidden; width: 68px; padding-right: 18px;&quot; title=&quot;Font Family&quot; class=&quot;geLabel&quot;&gt;&lt;div style=&quot;display: inline-block; overflow: hidden; text-overflow: ellipsis; max-width: 66px;&quot;&gt;Helvetica&lt;/div&gt;&lt;img style=&quot;position: absolute; right: 4px; top: 6px;&quot; src=&quot;data:image/gif;base64,R0lGODlhDQANAIABAHt7e////yH/C1hNUCBEYXRhWE1QPD94cGFja2V0IGJlZ2luPSLvu78iIGlkPSJXNU0wTXBDZWhpSHpyZVN6TlRjemtjOWQiPz4gPHg6eG1wbWV0YSB4bWxuczp4PSJhZG9iZTpuczptZXRhLyIgeDp4bXB0az0iQWRvYmUgWE1QIENvcmUgNS4wLWMwNjAgNjEuMTM0Nzc3LCAyMDEwLzAyLzEyLTE3OjMyOjAwICAgICAgICAiPiA8cmRmOlJERiB4bWxuczpyZGY9Imh0dHA6Ly93d3cudzMub3JnLzE5OTkvMDIvMjItcmRmLXN5bnRheC1ucyMiPiA8cmRmOkRlc2NyaXB0aW9uIHJkZjphYm91dD0iIiB4bWxuczp4bXA9Imh0dHA6Ly9ucy5hZG9iZS5jb20veGFwLzEuMC8iIHhtbG5zOnhtcE1NPSJodHRwOi8vbnMuYWRvYmUuY29tL3hhcC8xLjAvbW0vIiB4bWxuczpzdFJlZj0iaHR0cDovL25zLmFkb2JlLmNvbS94YXAvMS4wL3NUeXBlL1Jlc291cmNlUmVmIyIgeG1wOkNyZWF0b3JUb29sPSJBZG9iZSBQaG90b3Nob3AgQ1M1IE1hY2ludG9zaCIgeG1wTU06SW5zdGFuY2VJRD0ieG1wLmlpZDpCREM1NkJFMjE0NEMxMUU1ODk1Q0M5MjQ0MTA4QjNDMSIgeG1wTU06RG9jdW1lbnRJRD0ieG1wLmRpZDpCREM1NkJFMzE0NEMxMUU1ODk1Q0M5MjQ0MTA4QjNDMSI+IDx4bXBNTTpEZXJpdmVkRnJvbSBzdFJlZjppbnN0YW5jZUlEPSJ4bXAuaWlkOkQzOUMzMjZCMTQ0QjExRTU4OTVDQzkyNDQxMDhCM0MxIiBzdFJlZjpkb2N1bWVudElEPSJ4bXAuZGlkOkQzOUMzMjZDMTQ0QjExRTU4OTVDQzkyNDQxMDhCM0MxIi8+IDwvcmRmOkRlc2NyaXB0aW9uPiA8L3JkZjpSREY+IDwveDp4bXBtZXRhPiA8P3hwYWNrZXQgZW5kPSJyIj8+Af/+/fz7+vn49/b19PPy8fDv7u3s6+rp6Ofm5eTj4uHg397d3Nva2djX1tXU09LR0M/OzczLysnIx8bFxMPCwcC/vr28u7q5uLe2tbSzsrGwr66trKuqqainpqWko6KhoJ+enZybmpmYl5aVlJOSkZCPjo2Mi4qJiIeGhYSDgoGAf359fHt6eXh3dnV0c3JxcG9ubWxramloZ2ZlZGNiYWBfXl1cW1pZWFdWVVRTUlFQT05NTEtKSUhHRkVEQ0JBQD8+PTw7Ojk4NzY1NDMyMTAvLi0sKyopKCcmJSQjIiEgHx4dHBsaGRgXFhUUExIREA8ODQwLCgkIBwYFBAMCAQAAIfkEAQAAAQAsAAAAAA0ADQAAAhGMj6nL3QAjVHIu6azbvPtWAAA7&quot; valign=&quot;middle&quot; border=&quot;0&quot;&gt;&lt;/a&gt;&lt;div class=&quot;geSeparator&quot;&gt;&lt;/div&gt;&lt;a style=&quot;position: relative; white-space: nowrap; overflow: hidden; width: 24px; padding-right: 18px;&quot; title=&quot;Font Size&quot; class=&quot;geLabel&quot;&gt;&lt;div style=&quot;display: inline-block; overflow: hidden; text-overflow: ellipsis; max-width: 24px;&quot;&gt;24&lt;/div&gt;&lt;img style=&quot;position: absolute; right: 4px; top: 6px;&quot; src=&quot;data:image/gif;base64,R0lGODlhDQANAIABAHt7e////yH/C1hNUCBEYXRhWE1QPD94cGFja2V0IGJlZ2luPSLvu78iIGlkPSJXNU0wTXBDZWhpSHpyZVN6TlRjemtjOWQiPz4gPHg6eG1wbWV0YSB4bWxuczp4PSJhZG9iZTpuczptZXRhLyIgeDp4bXB0az0iQWRvYmUgWE1QIENvcmUgNS4wLWMwNjAgNjEuMTM0Nzc3LCAyMDEwLzAyLzEyLTE3OjMyOjAwICAgICAgICAiPiA8cmRmOlJERiB4bWxuczpyZGY9Imh0dHA6Ly93d3cudzMub3JnLzE5OTkvMDIvMjItcmRmLXN5bnRheC1ucyMiPiA8cmRmOkRlc2NyaXB0aW9uIHJkZjphYm91dD0iIiB4bWxuczp4bXA9Imh0dHA6Ly9ucy5hZG9iZS5jb20veGFwLzEuMC8iIHhtbG5zOnhtcE1NPSJodHRwOi8vbnMuYWRvYmUuY29tL3hhcC8xLjAvbW0vIiB4bWxuczpzdFJlZj0iaHR0cDovL25zLmFkb2JlLmNvbS94YXAvMS4wL3NUeXBlL1Jlc291cmNlUmVmIyIgeG1wOkNyZWF0b3JUb29sPSJBZG9iZSBQaG90b3Nob3AgQ1M1IE1hY2ludG9zaCIgeG1wTU06SW5zdGFuY2VJRD0ieG1wLmlpZDpCREM1NkJFMjE0NEMxMUU1ODk1Q0M5MjQ0MTA4QjNDMSIgeG1wTU06RG9jdW1lbnRJRD0ieG1wLmRpZDpCREM1NkJFMzE0NEMxMUU1ODk1Q0M5MjQ0MTA4QjNDMSI+IDx4bXBNTTpEZXJpdmVkRnJvbSBzdFJlZjppbnN0YW5jZUlEPSJ4bXAuaWlkOkQzOUMzMjZCMTQ0QjExRTU4OTVDQzkyNDQxMDhCM0MxIiBzdFJlZjpkb2N1bWVudElEPSJ4bXAuZGlkOkQzOUMzMjZDMTQ0QjExRTU4OTVDQzkyNDQxMDhCM0MxIi8+IDwvcmRmOkRlc2NyaXB0aW9uPiA8L3JkZjpSREY+IDwveDp4bXBtZXRhPiA8P3hwYWNrZXQgZW5kPSJyIj8+Af/+/fz7+vn49/b19PPy8fDv7u3s6+rp6Ofm5eTj4uHg397d3Nva2djX1tXU09LR0M/OzczLysnIx8bFxMPCwcC/vr28u7q5uLe2tbSzsrGwr66trKuqqainpqWko6KhoJ+enZybmpmYl5aVlJOSkZCPjo2Mi4qJiIeGhYSDgoGAf359fHt6eXh3dnV0c3JxcG9ubWxramloZ2ZlZGNiYWBfXl1cW1pZWFdWVVRTUlFQT05NTEtKSUhHRkVEQ0JBQD8+PTw7Ojk4NzY1NDMyMTAvLi0sKyopKCcmJSQjIiEgHx4dHBsaGRgXFhUUExIREA8ODQwLCgkIBwYFBAMCAQAAIfkEAQAAAQAsAAAAAA0ADQAAAhGMj6nL3QAjVHIu6azbvPtWAAA7&quot; valign=&quot;middle&quot; border=&quot;0&quot;&gt;&lt;/a&gt;&lt;div class=&quot;geSeparator&quot;&gt;&lt;/div&gt;&lt;a title=&quot;Undo (Ctrl+Z)&quot; class=&quot;geButton&quot;&gt;&lt;div class=&quot;geSprite geSprite-undo&quot;&gt;&lt;/div&gt;&lt;/a&gt;&lt;a title=&quot;Redo (Ctrl+Y)&quot; class=&quot;geButton&quot;&gt;&lt;div class=&quot;geSprite geSprite-redo&quot;&gt;&lt;/div&gt;&lt;/a&gt;&lt;div class=&quot;geSeparator&quot;&gt;&lt;/div&gt;&lt;a title=&quot;Bold (Ctrl+B)&quot; class=&quot;geButton&quot;&gt;&lt;div class=&quot;geSprite geSprite-bold&quot;&gt;&lt;/div&gt;&lt;/a&gt;&lt;a title=&quot;Italic (Ctrl+I)&quot; class=&quot;geButton&quot;&gt;&lt;div class=&quot;geSprite geSprite-italic&quot;&gt;&lt;/div&gt;&lt;/a&gt;&lt;a title=&quot;Underline (Ctrl+U)&quot; class=&quot;geButton&quot;&gt;&lt;div class=&quot;geSprite geSprite-underline&quot;&gt;&lt;/div&gt;&lt;/a&gt;&lt;a style=&quot;position: relative; white-space: nowrap; overflow: hidden; width: 30px;&quot; title=&quot;Align&quot; class=&quot;geButton&quot;&gt;&lt;div style=&quot;margin-left: -2px;&quot; class=&quot;geSprite geSprite-left&quot;&gt;&lt;/div&gt;&lt;img style=&quot;position: absolute; right: 4px; top: 5px; left: 22px;&quot; src=&quot;data:image/gif;base64,R0lGODlhDQANAIABAHt7e////yH/C1hNUCBEYXRhWE1QPD94cGFja2V0IGJlZ2luPSLvu78iIGlkPSJXNU0wTXBDZWhpSHpyZVN6TlRjemtjOWQiPz4gPHg6eG1wbWV0YSB4bWxuczp4PSJhZG9iZTpuczptZXRhLyIgeDp4bXB0az0iQWRvYmUgWE1QIENvcmUgNS4wLWMwNjAgNjEuMTM0Nzc3LCAyMDEwLzAyLzEyLTE3OjMyOjAwICAgICAgICAiPiA8cmRmOlJERiB4bWxuczpyZGY9Imh0dHA6Ly93d3cudzMub3JnLzE5OTkvMDIvMjItcmRmLXN5bnRheC1ucyMiPiA8cmRmOkRlc2NyaXB0aW9uIHJkZjphYm91dD0iIiB4bWxuczp4bXA9Imh0dHA6Ly9ucy5hZG9iZS5jb20veGFwLzEuMC8iIHhtbG5zOnhtcE1NPSJodHRwOi8vbnMuYWRvYmUuY29tL3hhcC8xLjAvbW0vIiB4bWxuczpzdFJlZj0iaHR0cDovL25zLmFkb2JlLmNvbS94YXAvMS4wL3NUeXBlL1Jlc291cmNlUmVmIyIgeG1wOkNyZWF0b3JUb29sPSJBZG9iZSBQaG90b3Nob3AgQ1M1IE1hY2ludG9zaCIgeG1wTU06SW5zdGFuY2VJRD0ieG1wLmlpZDpCREM1NkJFMjE0NEMxMUU1ODk1Q0M5MjQ0MTA4QjNDMSIgeG1wTU06RG9jdW1lbnRJRD0ieG1wLmRpZDpCREM1NkJFMzE0NEMxMUU1ODk1Q0M5MjQ0MTA4QjNDMSI+IDx4bXBNTTpEZXJpdmVkRnJvbSBzdFJlZjppbnN0YW5jZUlEPSJ4bXAuaWlkOkQzOUMzMjZCMTQ0QjExRTU4OTVDQzkyNDQxMDhCM0MxIiBzdFJlZjpkb2N1bWVudElEPSJ4bXAuZGlkOkQzOUMzMjZDMTQ0QjExRTU4OTVDQzkyNDQxMDhCM0MxIi8+IDwvcmRmOkRlc2NyaXB0aW9uPiA8L3JkZjpSREY+IDwveDp4bXBtZXRhPiA8P3hwYWNrZXQgZW5kPSJyIj8+Af/+/fz7+vn49/b19PPy8fDv7u3s6+rp6Ofm5eTj4uHg397d3Nva2djX1tXU09LR0M/OzczLysnIx8bFxMPCwcC/vr28u7q5uLe2tbSzsrGwr66trKuqqainpqWko6KhoJ+enZybmpmYl5aVlJOSkZCPjo2Mi4qJiIeGhYSDgoGAf359fHt6eXh3dnV0c3JxcG9ubWxramloZ2ZlZGNiYWBfXl1cW1pZWFdWVVRTUlFQT05NTEtKSUhHRkVEQ0JBQD8+PTw7Ojk4NzY1NDMyMTAvLi0sKyopKCcmJSQjIiEgHx4dHBsaGRgXFhUUExIREA8ODQwLCgkIBwYFBAMCAQAAIfkEAQAAAQAsAAAAAA0ADQAAAhGMj6nL3QAjVHIu6azbvPtWAAA7&quot; valign=&quot;middle&quot; border=&quot;0&quot;&gt;&lt;/a&gt;&lt;a style=&quot;position: relative; white-space: nowrap; overflow: hidden; width: 30px;&quot; title=&quot;Format&quot; class=&quot;geButton&quot;&gt;&lt;div style=&quot;margin-left: -2px;&quot; class=&quot;geSprite geSprite-dots&quot;&gt;&lt;/div&gt;&lt;img style=&quot;position: absolute; right: 4px; top: 5px; left: 22px;&quot; src=&quot;data:image/gif;base64,R0lGODlhDQANAIABAHt7e////yH/C1hNUCBEYXRhWE1QPD94cGFja2V0IGJlZ2luPSLvu78iIGlkPSJXNU0wTXBDZWhpSHpyZVN6TlRjemtjOWQiPz4gPHg6eG1wbWV0YSB4bWxuczp4PSJhZG9iZTpuczptZXRhLyIgeDp4bXB0az0iQWRvYmUgWE1QIENvcmUgNS4wLWMwNjAgNjEuMTM0Nzc3LCAyMDEwLzAyLzEyLTE3OjMyOjAwICAgICAgICAiPiA8cmRmOlJERiB4bWxuczpyZGY9Imh0dHA6Ly93d3cudzMub3JnLzE5OTkvMDIvMjItcmRmLXN5bnRheC1ucyMiPiA8cmRmOkRlc2NyaXB0aW9uIHJkZjphYm91dD0iIiB4bWxuczp4bXA9Imh0dHA6Ly9ucy5hZG9iZS5jb20veGFwLzEuMC8iIHhtbG5zOnhtcE1NPSJodHRwOi8vbnMuYWRvYmUuY29tL3hhcC8xLjAvbW0vIiB4bWxuczpzdFJlZj0iaHR0cDovL25zLmFkb2JlLmNvbS94YXAvMS4wL3NUeXBlL1Jlc291cmNlUmVmIyIgeG1wOkNyZWF0b3JUb29sPSJBZG9iZSBQaG90b3Nob3AgQ1M1IE1hY2ludG9zaCIgeG1wTU06SW5zdGFuY2VJRD0ieG1wLmlpZDpCREM1NkJFMjE0NEMxMUU1ODk1Q0M5MjQ0MTA4QjNDMSIgeG1wTU06RG9jdW1lbnRJRD0ieG1wLmRpZDpCREM1NkJFMzE0NEMxMUU1ODk1Q0M5MjQ0MTA4QjNDMSI+IDx4bXBNTTpEZXJpdmVkRnJvbSBzdFJlZjppbnN0YW5jZUlEPSJ4bXAuaWlkOkQzOUMzMjZCMTQ0QjExRTU4OTVDQzkyNDQxMDhCM0MxIiBzdFJlZjpkb2N1bWVudElEPSJ4bXAuZGlkOkQzOUMzMjZDMTQ0QjExRTU4OTVDQzkyNDQxMDhCM0MxIi8+IDwvcmRmOkRlc2NyaXB0aW9uPiA8L3JkZjpSREY+IDwveDp4bXBtZXRhPiA8P3hwYWNrZXQgZW5kPSJyIj8+Af/+/fz7+vn49/b19PPy8fDv7u3s6+rp6Ofm5eTj4uHg397d3Nva2djX1tXU09LR0M/OzczLysnIx8bFxMPCwcC/vr28u7q5uLe2tbSzsrGwr66trKuqqainpqWko6KhoJ+enZybmpmYl5aVlJOSkZCPjo2Mi4qJiIeGhYSDgoGAf359fHt6eXh3dnV0c3JxcG9ubWxramloZ2ZlZGNiYWBfXl1cW1pZWFdWVVRTUlFQT05NTEtKSUhHRkVEQ0JBQD8+PTw7Ojk4NzY1NDMyMTAvLi0sKyopKCcmJSQjIiEgHx4dHBsaGRgXFhUUExIREA8ODQwLCgkIBwYFBAMCAQAAIfkEAQAAAQAsAAAAAA0ADQAAAhGMj6nL3QAjVHIu6azbvPtWAAA7&quot; valign=&quot;middle&quot; border=&quot;0&quot;&gt;&lt;/a&gt;&lt;div class=&quot;geSeparator&quot;&gt;&lt;/div&gt;&lt;a title=&quot;HTML&quot; class=&quot;geButton&quot;&gt;&lt;div class=&quot;geSprite geIcon geSprite geSprite-code&quot;&gt;&lt;/div&gt;&lt;/a&gt;&lt;div class=&quot;geSeparator&quot;&gt;&lt;/div&gt;&lt;a style=&quot;white-space: nowrap; overflow: hidden; position: relative; width: 30px;&quot; title=&quot;Insert&quot; class=&quot;geLabel&quot;&gt;&lt;div style=&quot;margin-left: -4px; margin-top: -3px;&quot; class=&quot;geSprite geSprite-plus&quot;&gt;&lt;/div&gt;&lt;img style=&quot;position: absolute; right: 4px; top: 5px; left: 24px;&quot; src=&quot;data:image/gif;base64,R0lGODlhDQANAIABAHt7e////yH/C1hNUCBEYXRhWE1QPD94cGFja2V0IGJlZ2luPSLvu78iIGlkPSJXNU0wTXBDZWhpSHpyZVN6TlRjemtjOWQiPz4gPHg6eG1wbWV0YSB4bWxuczp4PSJhZG9iZTpuczptZXRhLyIgeDp4bXB0az0iQWRvYmUgWE1QIENvcmUgNS4wLWMwNjAgNjEuMTM0Nzc3LCAyMDEwLzAyLzEyLTE3OjMyOjAwICAgICAgICAiPiA8cmRmOlJERiB4bWxuczpyZGY9Imh0dHA6Ly93d3cudzMub3JnLzE5OTkvMDIvMjItcmRmLXN5bnRheC1ucyMiPiA8cmRmOkRlc2NyaXB0aW9uIHJkZjphYm91dD0iIiB4bWxuczp4bXA9Imh0dHA6Ly9ucy5hZG9iZS5jb20veGFwLzEuMC8iIHhtbG5zOnhtcE1NPSJodHRwOi8vbnMuYWRvYmUuY29tL3hhcC8xLjAvbW0vIiB4bWxuczpzdFJlZj0iaHR0cDovL25zLmFkb2JlLmNvbS94YXAvMS4wL3NUeXBlL1Jlc291cmNlUmVmIyIgeG1wOkNyZWF0b3JUb29sPSJBZG9iZSBQaG90b3Nob3AgQ1M1IE1hY2ludG9zaCIgeG1wTU06SW5zdGFuY2VJRD0ieG1wLmlpZDpCREM1NkJFMjE0NEMxMUU1ODk1Q0M5MjQ0MTA4QjNDMSIgeG1wTU06RG9jdW1lbnRJRD0ieG1wLmRpZDpCREM1NkJFMzE0NEMxMUU1ODk1Q0M5MjQ0MTA4QjNDMSI+IDx4bXBNTTpEZXJpdmVkRnJvbSBzdFJlZjppbnN0YW5jZUlEPSJ4bXAuaWlkOkQzOUMzMjZCMTQ0QjExRTU4OTVDQzkyNDQxMDhCM0MxIiBzdFJlZjpkb2N1bWVudElEPSJ4bXAuZGlkOkQzOUMzMjZDMTQ0QjExRTU4OTVDQzkyNDQxMDhCM0MxIi8+IDwvcmRmOkRlc2NyaXB0aW9uPiA8L3JkZjpSREY+IDwveDp4bXBtZXRhPiA8P3hwYWNrZXQgZW5kPSJyIj8+Af/+/fz7+vn49/b19PPy8fDv7u3s6+rp6Ofm5eTj4uHg397d3Nva2djX1tXU09LR0M/OzczLysnIx8bFxMPCwcC/vr28u7q5uLe2tbSzsrGwr66trKuqqainpqWko6KhoJ+enZybmpmYl5aVlJOSkZCPjo2Mi4qJiIeGhYSDgoGAf359fHt6eXh3dnV0c3JxcG9ubWxramloZ2ZlZGNiYWBfXl1cW1pZWFdWVVRTUlFQT05NTEtKSUhHRkVEQ0JBQD8+PTw7Ojk4NzY1NDMyMTAvLi0sKyopKCcmJSQjIiEgHx4dHBsaGRgXFhUUExIREA8ODQwLCgkIBwYFBAMCAQAAIfkEAQAAAQAsAAAAAA0ADQAAAhGMj6nL3QAjVHIu6azbvPtWAAA7&quot; valign=&quot;middle&quot; border=&quot;0&quot;&gt;&lt;/a&gt;&lt;div class=&quot;geSeparator&quot;&gt;&lt;/div&gt;&lt;a style=&quot;position: relative; white-space: nowrap; overflow: hidden; width: 30px;&quot; title=&quot;Table&quot; class=&quot;geButton&quot;&gt;&lt;div style=&quot;margin-left: -2px;&quot; class=&quot;geSprite geSprite-table&quot;&gt;&lt;/div&gt;&lt;img style=&quot;position: absolute; right: 4px; top: 5px; left: 22px;&quot; src=&quot;data:image/gif;base64,R0lGODlhDQANAIABAHt7e////yH/C1hNUCBEYXRhWE1QPD94cGFja2V0IGJlZ2luPSLvu78iIGlkPSJXNU0wTXBDZWhpSHpyZVN6TlRjemtjOWQiPz4gPHg6eG1wbWV0YSB4bWxuczp4PSJhZG9iZTpuczptZXRhLyIgeDp4bXB0az0iQWRvYmUgWE1QIENvcmUgNS4wLWMwNjAgNjEuMTM0Nzc3LCAyMDEwLzAyLzEyLTE3OjMyOjAwICAgICAgICAiPiA8cmRmOlJERiB4bWxuczpyZGY9Imh0dHA6Ly93d3cudzMub3JnLzE5OTkvMDIvMjItcmRmLXN5bnRheC1ucyMiPiA8cmRmOkRlc2NyaXB0aW9uIHJkZjphYm91dD0iIiB4bWxuczp4bXA9Imh0dHA6Ly9ucy5hZG9iZS5jb20veGFwLzEuMC8iIHhtbG5zOnhtcE1NPSJodHRwOi8vbnMuYWRvYmUuY29tL3hhcC8xLjAvbW0vIiB4bWxuczpzdFJlZj0iaHR0cDovL25zLmFkb2JlLmNvbS94YXAvMS4wL3NUeXBlL1Jlc291cmNlUmVmIyIgeG1wOkNyZWF0b3JUb29sPSJBZG9iZSBQaG90b3Nob3AgQ1M1IE1hY2ludG9zaCIgeG1wTU06SW5zdGFuY2VJRD0ieG1wLmlpZDpCREM1NkJFMjE0NEMxMUU1ODk1Q0M5MjQ0MTA4QjNDMSIgeG1wTU06RG9jdW1lbnRJRD0ieG1wLmRpZDpCREM1NkJFMzE0NEMxMUU1ODk1Q0M5MjQ0MTA4QjNDMSI+IDx4bXBNTTpEZXJpdmVkRnJvbSBzdFJlZjppbnN0YW5jZUlEPSJ4bXAuaWlkOkQzOUMzMjZCMTQ0QjExRTU4OTVDQzkyNDQxMDhCM0MxIiBzdFJlZjpkb2N1bWVudElEPSJ4bXAuZGlkOkQzOUMzMjZDMTQ0QjExRTU4OTVDQzkyNDQxMDhCM0MxIi8+IDwvcmRmOkRlc2NyaXB0aW9uPiA8L3JkZjpSREY+IDwveDp4bXBtZXRhPiA8P3hwYWNrZXQgZW5kPSJyIj8+Af/+/fz7+vn49/b19PPy8fDv7u3s6+rp6Ofm5eTj4uHg397d3Nva2djX1tXU09LR0M/OzczLysnIx8bFxMPCwcC/vr28u7q5uLe2tbSzsrGwr66trKuqqainpqWko6KhoJ+enZybmpmYl5aVlJOSkZCPjo2Mi4qJiIeGhYSDgoGAf359fHt6eXh3dnV0c3JxcG9ubWxramloZ2ZlZGNiYWBfXl1cW1pZWFdWVVRTUlFQT05NTEtKSUhHRkVEQ0JBQD8+PTw7Ojk4NzY1NDMyMTAvLi0sKyopKCcmJSQjIiEgHx4dHBsaGRgXFhUUExIREA8ODQwLCgkIBwYFBAMCAQAAIfkEAQAAAQAsAAAAAA0ADQAAAhGMj6nL3QAjVHIu6azbvPtWAAA7&quot; valign=&quot;middle&quot; border=&quot;0&quot;&gt;&lt;/a&gt;&lt;/div&gt;&lt;a style=&quot;position: absolute; display: inline-block; top: 6px; right: 10px; padding: 2px; font-size: 14px; width: 16px; height: 16px; background-position: 50% 50%; background-size: 16px 16px; background-repeat: no-repeat; background-image: url(&amp;quot;data:image/png;base64,iVBORw0KGgoAAAANSUhEUgAAABAAAAAQCAMAAAAoLQ9TAAAAGXRFWHRTb2Z0d2FyZQBBZG9iZSBJbWFnZVJlYWR5ccllPAAAAyJpVFh0WE1MOmNvbS5hZG9iZS54bXAAAAAAADw/eHBhY2tldCBiZWdpbj0i77u/IiBpZD0iVzVNME1wQ2VoaUh6cmVTek5UY3prYzlkIj8+IDx4OnhtcG1ldGEgeG1sbnM6eD0iYWRvYmU6bnM6bWV0YS8iIHg6eG1wdGs9IkFkb2JlIFhNUCBDb3JlIDUuMC1jMDYwIDYxLjEzNDc3NywgMjAxMC8wMi8xMi0xNzozMjowMCAgICAgICAgIj4gPHJkZjpSREYgeG1sbnM6cmRmPSJodHRwOi8vd3d3LnczLm9yZy8xOTk5LzAyLzIyLXJkZi1zeW50YXgtbnMjIj4gPHJkZjpEZXNjcmlwdGlvbiByZGY6YWJvdXQ9IiIgeG1sbnM6eG1wPSJodHRwOi8vbnMuYWRvYmUuY29tL3hhcC8xLjAvIiB4bWxuczp4bXBNTT0iaHR0cDovL25zLmFkb2JlLmNvbS94YXAvMS4wL21tLyIgeG1sbnM6c3RSZWY9Imh0dHA6Ly9ucy5hZG9iZS5jb20veGFwLzEuMC9zVHlwZS9SZXNvdXJjZVJlZiMiIHhtcDpDcmVhdG9yVG9vbD0iQWRvYmUgUGhvdG9zaG9wIENTNSBNYWNpbnRvc2giIHhtcE1NOkluc3RhbmNlSUQ9InhtcC5paWQ6ODdCREY5REY1NkQ3MTFFNTkyNjNEMTA5NjgwODUyRTgiIHhtcE1NOkRvY3VtZW50SUQ9InhtcC5kaWQ6ODdCREY5RTA1NkQ3MTFFNTkyNjNEMTA5NjgwODUyRTgiPiA8eG1wTU06RGVyaXZlZEZyb20gc3RSZWY6aW5zdGFuY2VJRD0ieG1wLmlpZDo4N0JERjlERDU2RDcxMUU1OTI2M0QxMDk2ODA4NTJFOCIgc3RSZWY6ZG9jdW1lbnRJRD0ieG1wLmRpZDo4N0JERjlERTU2RDcxMUU1OTI2M0QxMDk2ODA4NTJFOCIvPiA8L3JkZjpEZXNjcmlwdGlvbj4gPC9yZGY6UkRGPiA8L3g6eG1wbWV0YT4gPD94cGFja2V0IGVuZD0iciI/PlnMQ/8AAAAJUExURQAAAP///3FxcTfTiAsAAAACdFJOU/8A5bcwSgAAACFJREFUeNpiYEQDDEQJMMABTAAixcQ00ALoDiPRcwABBgB6DADly9Yx8wAAAABJRU5ErkJggg==&amp;quot;);&quot; class=&quot;geButton geAdaptiveAsset&quot; title=&quot;Format (Ctrl+Shift+P)&quot;&gt;&lt;/a&gt;&lt;a style=&quot;position: absolute; display: inline-block; top: 6px; right: 30px; padding: 2px; font-size: 14px; width: 16px; height: 16px; background-position: 50% 50%; background-size: 16px 16px; background-repeat: no-repeat; background-image: url(&amp;quot;data:image/svg+xml;base64,PHN2ZyB4bWxucz0iaHR0cDovL3d3dy53My5vcmcvMjAwMC9zdmciIHdpZHRoPSIyNCIgaGVpZ2h0PSIyNCIgdmlld0JveD0iMCAwIDI0IDI0Ij48cGF0aCBkPSJNMyA1djRoMlY1aDRWM0g1Yy0xLjEgMC0yIC45LTIgMnptMiAxMEgzdjRjMCAxLjEuOSAyIDIgMmg0di0ySDV2LTR6bTE0IDRoLTR2Mmg0YzEuMSAwIDItLjkgMi0ydi00aC0ydjR6bTAtMTZoLTR2Mmg0djRoMlY1YzAtMS4xLS45LTItMi0yeiIvPjwvc3ZnPg==&amp;quot;);&quot; class=&quot;geButton geAdaptiveAsset&quot; title=&quot;Fullscreen&quot;&gt;&lt;/a&gt;&lt;/div&gt;&lt;div style=&quot;width: 12px; z-index: 1; touch-action: none; top: 69px; left: 212px; bottom: 37px;&quot; class=&quot;geHsplit&quot;&gt;&lt;/div&gt;" style="text;html=1;strokeColor=#666666;fillColor=#f5f5f5;spacing=5;spacingTop=-20;whiteSpace=wrap;overflow=hidden;rounded=0;strokeWidth=3;fontColor=#333333;" parent="1" vertex="1">
                    <mxGeometry x="101.5" y="420" width="651" height="94" as="geometry"/>
                </mxCell>
                <mxCell id="31" value="" style="endArrow=classic;html=1;dashed=1;" parent="1" edge="1">
                    <mxGeometry width="50" height="50" relative="1" as="geometry">
                        <mxPoint x="73" y="310" as="sourcePoint"/>
                        <mxPoint x="779" y="310" as="targetPoint"/>
                    </mxGeometry>
                </mxCell>
                <mxCell id="32" value="【Optional】使用LK做通信安全ACK" style="text;html=1;strokeColor=none;fillColor=none;align=left;verticalAlign=middle;whiteSpace=wrap;rounded=0;strokeWidth=3;" parent="1" vertex="1">
                    <mxGeometry x="70" y="288" width="241" height="30" as="geometry"/>
                </mxCell>
                <mxCell id="34" value="" style="endArrow=classic;startArrow=classic;html=1;" parent="1" edge="1">
                    <mxGeometry width="50" height="50" relative="1" as="geometry">
                        <mxPoint x="75" y="551" as="sourcePoint"/>
                        <mxPoint x="773" y="550" as="targetPoint"/>
                    </mxGeometry>
                </mxCell>
                <mxCell id="35" value="" style="endArrow=classic;html=1;strokeWidth=1;" parent="1" edge="1">
                    <mxGeometry width="50" height="50" relative="1" as="geometry">
                        <mxPoint x="774" y="561" as="sourcePoint"/>
                        <mxPoint x="774" y="582" as="targetPoint"/>
                        <Array as="points">
                            <mxPoint x="744" y="561"/>
                            <mxPoint x="726" y="570"/>
                            <mxPoint x="726" y="580"/>
                        </Array>
                    </mxGeometry>
                </mxCell>
                <mxCell id="36" value="内部销毁LK及KEK" style="text;html=1;strokeColor=none;fillColor=none;align=right;verticalAlign=middle;whiteSpace=wrap;rounded=0;strokeWidth=3;" parent="1" vertex="1">
                    <mxGeometry x="620" y="560" width="107" height="30" as="geometry"/>
                </mxCell>
                <mxCell id="37" value="" style="endArrow=classic;html=1;strokeWidth=1;" parent="1" edge="1">
                    <mxGeometry width="50" height="50" relative="1" as="geometry">
                        <mxPoint x="74" y="566" as="sourcePoint"/>
                        <mxPoint x="74" y="586" as="targetPoint"/>
                        <Array as="points">
                            <mxPoint x="114" y="566"/>
                            <mxPoint x="125" y="576"/>
                            <mxPoint x="124" y="586"/>
                        </Array>
                    </mxGeometry>
                </mxCell>
                <mxCell id="38" value="内部销毁LK及KEK" style="text;html=1;strokeColor=none;fillColor=none;align=left;verticalAlign=middle;whiteSpace=wrap;rounded=0;strokeWidth=3;" parent="1" vertex="1">
                    <mxGeometry x="125" y="562" width="111" height="30" as="geometry"/>
                </mxCell>
                <mxCell id="39" value="通信结束/终止" style="text;html=1;strokeColor=none;fillColor=none;align=left;verticalAlign=middle;whiteSpace=wrap;rounded=0;strokeWidth=3;" parent="1" vertex="1">
                    <mxGeometry x="384.5" y="528" width="111" height="30" as="geometry"/>
                </mxCell>
                <mxCell id="8" value="Manufacture&lt;br&gt;&amp;lt;SECURITY&amp;gt;" style="rounded=1;whiteSpace=wrap;html=1;strokeWidth=3;" parent="1" vertex="1">
                    <mxGeometry x="718" y="40" width="120" height="40" as="geometry"/>
                </mxCell>
                <mxCell id="9" value="" style="endArrow=none;html=1;entryX=0.5;entryY=1;entryDx=0;entryDy=0;strokeWidth=2.5;exitX=0.5;exitY=0;exitDx=0;exitDy=0;" parent="1" source="11" target="8" edge="1">
                    <mxGeometry width="50" height="50" relative="1" as="geometry">
                        <mxPoint x="778" y="720" as="sourcePoint"/>
                        <mxPoint x="1108" y="211.28205128205127" as="targetPoint"/>
                    </mxGeometry>
                </mxCell>
            </root>
        </mxGraphModel>
    </diagram>
</mxfile>